<?xml version="1.0" encoding="utf-8"?>
<svg xmlns="http://www.w3.org/2000/svg" viewBox="0 0 500 500" xmlns:bx="https://boxy-svg.com" width="500px" height="500px"><defs><bx:export><bx:file format="svg"/></bx:export></defs><path fill="rgb(254,52,60)" d="M 310.995 7.74 C 319.295 6.708 353.555 8.188 362.305 7.948 C 376.515 7.558 454.205 18.659 460.845 25.971 L 460.295 27.83 C 445.645 40.137 424.065 62.345 412.775 77.559 C 384.135 116.141 352.675 161.192 305.525 178.732 C 263.105 194.509 214.035 190.43 172.645 172.232 C 215.415 123.993 292.135 98.067 346.195 66.344 C 329.665 69.158 308.465 77.741 292.645 84.443 C 247.205 103.694 192.465 129.066 158.225 164.994 C 129.485 195.144 125.625 231.102 127.415 270.567 C 149.565 253.172 161.255 247.755 188.575 242.215 C 199.525 241.647 211.425 241.29 222.265 242.518 C 324.955 254.149 347.495 405.261 272.415 463.566 C 238.425 490.087 199.525 494.409 158.565 490.12 C 68.395 480.68 26.825 397.826 38.925 313.718 C 48.155 249.505 84.615 191.834 136.025 152.269 C 114.825 56.09 217.965 14.499 294.785 8.952 C 300.205 8.56 305.545 8.04 310.995 7.74 Z M 198.825 434.979 C 286.525 414.822 261.855 285.531 179.855 296.529 C 138.435 304.66 117.475 342.007 125.415 382.335 C 129.025 399.776 139.375 415.085 154.215 424.934 C 168.845 434.69 181.795 436.518 198.825 434.979 Z" style="stroke-width: 1;"/></svg>