<svg version="1.1" xmlns="http://www.w3.org/2000/svg" style="display: block;" viewBox="0 0 2048 498" width="1242" height="302" preserveAspectRatio="none">
<path transform="translate(0,0)" fill="rgb(254,52,60)" d="M 280.695 6.46606 C 288.996 5.43421 323.264 6.91443 332.007 6.67457 C 346.222 6.28462 423.91 17.3851 430.553 24.6972 L 429.995 26.5559 C 415.345 38.8632 393.771 61.0714 382.478 76.285 C 353.837 114.867 322.38 159.918 275.225 177.458 C 232.81 193.235 183.736 189.156 142.352 170.958 C 185.123 122.719 261.835 96.7935 315.896 65.0702 C 299.372 67.884 278.173 76.4668 262.352 83.1689 C 216.909 102.42 162.167 127.792 127.926 163.72 C 99.1931 193.87 95.3307 229.828 97.1177 269.293 C 119.267 251.898 130.957 246.481 158.281 240.941 C 169.231 240.373 181.125 240.016 191.967 241.244 C 294.663 252.875 317.2 403.987 242.116 462.292 C 208.125 488.813 169.228 493.135 128.264 488.846 C 38.103 479.406 -3.46781 396.552 8.62862 312.444 C 17.8637 248.231 54.3219 190.56 105.732 150.995 C 84.5287 54.8165 187.67 13.2255 264.487 7.67775 C 269.907 7.28634 275.246 6.76621 280.695 6.46606 z M 168.529 433.705 C 256.226 413.548 231.564 284.257 149.559 295.255 C 108.134 303.386 87.174 340.733 95.1193 381.061 C 98.7311 398.502 109.082 413.811 123.922 423.66 C 138.553 433.416 151.501 435.244 168.529 433.705 z"/>
<path transform="translate(0,0)" fill="rgb(254,52,60)" d="M 614.653 291.409 C 615.683 291.002 619.389 290.703 620.557 290.745 C 648.904 291.748 666.535 299.515 686.35 318.429 C 686.037 311.265 686.718 303.501 686.329 295.395 C 701.663 295.804 718.695 295.54 734.031 295.095 C 734.285 357.088 735.21 423.491 733.909 485.123 C 718.418 485.357 701.854 484.962 686.277 484.874 C 686.043 477.268 686.176 468.973 686.144 461.308 L 677.211 469.791 C 645.237 497.123 591.477 494.237 559.635 468.13 C 539.983 452.169 527.526 429.015 525.036 403.82 C 519.175 344.354 554.249 297.12 614.653 291.409 z M 636.394 447.238 C 667.533 443.083 689.534 414.65 685.742 383.465 C 681.95 352.28 653.776 329.949 622.549 333.377 C 602.022 335.63 584.292 348.744 576.127 367.712 C 567.962 386.679 570.624 408.571 583.097 425.029 C 595.569 441.487 615.926 449.97 636.394 447.238 z"/>
<path transform="translate(0,0)" fill="rgb(254,52,60)" d="M 1799.75 291.381 C 1800.7 291.031 1804.87 290.712 1806.15 290.724 C 1836.85 291.018 1851.76 298.636 1873.11 318.503 L 1873.23 295.386 C 1888.82 295.461 1904.42 295.362 1920.01 295.087 C 1919.13 307.873 1919.76 326.684 1919.79 340.039 L 1920.07 431.802 C 1920.2 449.481 1921.1 467.9 1920.23 485.445 C 1904.55 485.1 1888.87 484.968 1873.19 485.052 C 1872.86 476.624 1872.92 469.532 1873.16 461.092 C 1870.71 464.241 1866.82 467.778 1863.89 470.616 C 1820.71 503.037 1754.3 491.407 1728.19 444.424 C 1692.89 380.911 1723.7 299.675 1799.75 291.381 z M 1824.35 446.846 C 1855.17 442.903 1877.12 414.951 1873.64 384.073 C 1870.17 353.195 1842.55 330.825 1811.62 333.837 C 1791.2 335.826 1773.43 348.664 1765.12 367.432 C 1756.82 386.199 1759.28 407.983 1771.54 424.434 C 1783.81 440.885 1803.99 449.45 1824.35 446.846 z"/>
<path transform="translate(0,0)" fill="rgb(254,52,60)" d="M 1062.43 291.364 C 1062.84 291.215 1063.34 291.05 1063.77 291.016 C 1120.32 286.602 1173.64 321.325 1179.14 380.516 C 1184.67 439.989 1144.84 483.626 1086.24 488.547 C 1078.9 490.309 1062.56 488.781 1055.17 487.539 C 937.377 467.739 940.163 306.152 1062.43 291.364 z M 1078.48 446.988 C 1109.67 444.74 1133.31 417.904 1131.6 386.677 C 1129.88 355.451 1103.46 331.359 1072.21 332.534 C 1051.51 333.313 1032.84 345.198 1023.37 363.622 C 1013.91 382.047 1015.12 404.145 1026.54 421.424 C 1037.96 438.704 1057.82 448.477 1078.48 446.988 z"/>
<path transform="translate(0,0)" fill="rgb(254,52,60)" d="M 400.657 291.37 C 405.908 290.06 414.362 290.958 419.78 291.556 C 479.136 298.111 511.943 348.076 504.393 406.157 L 359.93 406.115 C 367.013 447.669 411.132 461.096 445.005 440.552 C 450.038 437.499 455.544 427.825 461.454 425.3 C 464.346 425.653 466.298 427.842 468.532 429.805 C 477.135 435.401 485.694 441.531 494.24 447.308 C 492.892 450.057 491.289 452.675 489.454 455.125 C 475.423 473.792 449.875 484.746 426.515 488.082 C 334.053 501.29 277.409 405.152 329.872 329.679 C 346.961 305.094 370.991 295.176 400.657 291.37 z M 359.98 371.127 C 375.277 372.156 395.608 371.477 411.289 371.365 C 426.602 371.418 442.568 371.691 457.822 371.309 C 449.766 344.9 438.074 329.042 408.204 329.415 C 380.8 330.397 366.55 345.657 359.98 371.127 z"/>
<path transform="translate(0,0)" fill="rgb(254,52,60)" d="M 1590.66 291.392 C 1592.08 290.957 1596.8 290.642 1598.29 290.714 C 1626.25 292.07 1649.45 298.529 1668.95 319.068 C 1695.61 347.143 1695.32 370.743 1694.99 406.159 C 1646.72 405.935 1598.44 405.989 1550.17 406.323 C 1551.26 410.35 1552.47 414.881 1553.97 418.734 C 1565.43 448.325 1604.88 458.144 1631.14 442.795 C 1639.85 437.71 1644.68 432.239 1650.85 424.579 C 1653.27 425.818 1656.65 428.196 1659.01 429.763 C 1664.77 434.407 1678.5 443.254 1685.07 447.805 C 1683.52 449.915 1681.93 451.996 1680.31 454.047 C 1629.17 518.283 1508.92 491.206 1502.35 403.768 C 1497.86 343.91 1530.09 297.941 1590.66 291.392 z M 1551.02 371.201 L 1606.25 371.245 C 1620.29 371.338 1634.56 371.29 1648.58 371.536 C 1646.65 364.384 1645.72 359.815 1641.26 352.004 C 1632.4 336.512 1615.9 327.968 1598.05 329.33 C 1597.91 329.382 1597.76 329.433 1597.61 329.485 C 1569.36 330.761 1559.11 346.997 1551.02 371.201 z"/>
<path transform="translate(0,0)" fill="rgb(254,52,60)" d="M 1310.72 290.485 C 1312.61 290.341 1314.5 290.297 1316.39 290.353 C 1391.65 292.719 1391.48 359.043 1389.78 416.316 C 1389.11 438.961 1390.19 462.302 1389.48 485.14 C 1373.27 485.007 1357.07 484.988 1340.87 485.084 L 1341.02 409.815 C 1341.05 395.604 1341.18 382.338 1340.15 368.108 C 1337.48 331.646 1297.3 323.232 1271.04 342.337 C 1250.08 361.336 1253.83 385.044 1253.38 410.625 C 1252.95 435.179 1254.63 460.494 1253.26 484.965 C 1238.32 485.462 1221.18 485.014 1206.07 484.967 C 1206.86 422.65 1205.6 357.89 1205.67 295.188 C 1221.77 295.32 1237.88 295.264 1253.98 295.02 C 1253.2 302.906 1253.37 312.053 1253.33 320.074 C 1268.77 299.816 1285.1 291.419 1310.72 290.485 z"/>
<path transform="translate(0,0)" fill="rgb(254,52,60)" d="M 851.029 291.388 C 859.395 288.244 885.953 292.882 894.875 295.858 C 921.125 304.614 941.115 320.701 953.815 345.25 C 940.865 351.488 927.812 357.512 914.662 363.319 C 910.566 357.062 905.568 350.776 899.853 345.921 C 888.852 336.391 874.482 331.682 859.974 332.853 C 846.072 334.032 831.42 341.744 822.444 352.467 C 812.063 364.81 807.045 380.79 808.506 396.852 C 809.891 411.74 815.72 423.733 827.372 433.365 C 839.967 443.899 856.265 448.936 872.608 447.344 C 890.853 445.564 902.547 436.096 913.78 422.534 C 919.275 415.407 949.066 434.756 955.149 439.251 C 950.349 447.276 944.896 455.042 938.006 461.557 C 880.764 515.686 772.431 488.358 762.261 405.253 C 755.07 346.488 791.195 298.118 851.029 291.388 z"/>
<path transform="translate(0,0)" fill="rgb(254,52,60)" d="M 2010.96 212.199 C 2014.52 211.768 2030.7 213.02 2034.91 213.274 C 2036.09 225.345 2035.45 242.331 2035.28 254.653 C 2000.13 251.535 2003.27 266.195 2002.77 295.172 C 2013.22 295.306 2023.68 295.343 2034.13 295.283 C 2034.7 305.724 2034.04 322.007 2034.19 333.286 C 2023.53 332.926 2013.43 333.229 2002.79 333.505 C 2004.72 380.185 2003.15 437.837 2003.08 485.377 L 1987.24 485.156 L 1954.07 485.221 C 1955.36 434.955 1953.83 383.92 1954.73 333.557 C 1948.22 332.946 1943.58 333.301 1937.07 333.666 C 1936.78 321.41 1937.14 307.721 1937.19 295.352 L 1954.41 295.224 C 1955.76 250.093 1954.04 216.3 2010.96 212.199 z"/>
<path transform="translate(0,0)" fill="rgb(254,52,60)" d="M 1428.8 206.21 C 1443.13 205.504 1461.66 206.054 1476.3 206.075 L 1476.6 483.655 C 1474.15 486.077 1435.75 485.274 1429.03 485.336 C 1428.24 455.531 1428.86 423.352 1428.87 393.374 L 1428.8 206.21 z"/>
</svg>